  0
SECTION
  2
HEADER
  9
$ACADVER
  1
AC1009
  9
$INSBASE
 10
0.0
 20
0.0
 30
0.0
  9
$EXTMIN
 10
2515.5424764150711781
 20
1640.0
 30
0.0
  9
$EXTMAX
 10
3500.6548431105052259
 20
2590.0
 30
0.0
  9
$LIMMIN
 10
0.0
 20
0.0
  9
$LIMMAX
 10
420.0
 20
297.0
  9
$ORTHOMODE
 70
     0
  9
$REGENMODE
 70
     1
  9
$FILLMODE
 70
     1
  9
$QTEXTMODE
 70
     0
  9
$MIRRTEXT
 70
     0
  9
$DRAGMODE
 70
     2
  9
$LTSCALE
 40
1.0
  9
$OSMODE
 70
  1455
  9
$ATTMODE
 70
     1
  9
$TEXTSIZE
 40
10.0
  9
$TRACEWID
 40
1.0
  9
$TEXTSTYLE
  7
STANDARD
  9
$CLAYER
  8
0
  9
$CELTYPE
  6
BYLAYER
  9
$CECOLOR
 62
   256
  9
$DIMSCALE
 40
1.0
  9
$DIMASZ
 40
2.5
  9
$DIMEXO
 40
0.625
  9
$DIMDLI
 40
3.75
  9
$DIMRND
 40
0.0
  9
$DIMDLE
 40
0.0
  9
$DIMEXE
 40
1.25
  9
$DIMTP
 40
0.0
  9
$DIMTM
 40
0.0
  9
$DIMTXT
 40
2.5
  9
$DIMCEN
 40
2.5
  9
$DIMTSZ
 40
0.0
  9
$DIMTOL
 70
     0
  9
$DIMLIM
 70
     0
  9
$DIMTIH
 70
     0
  9
$DIMTOH
 70
     0
  9
$DIMSE1
 70
     0
  9
$DIMSE2
 70
     0
  9
$DIMTAD
 70
     1
  9
$DIMZIN
 70
     8
  9
$DIMBLK
  1

  9
$DIMASO
 70
     1
  9
$DIMSHO
 70
     1
  9
$DIMPOST
  1

  9
$DIMAPOST
  1

  9
$DIMALT
 70
     0
  9
$DIMALTD
 70
     3
  9
$DIMALTF
 40
0.03937007874016
  9
$DIMLFAC
 40
1.0
  9
$DIMTOFL
 70
     1
  9
$DIMTVP
 40
0.0
  9
$DIMTIX
 70
     0
  9
$DIMSOXD
 70
     0
  9
$DIMSAH
 70
     0
  9
$DIMBLK1
  1

  9
$DIMBLK2
  1

  9
$DIMSTYLE
  2
ISO-25
  9
$DIMCLRD
 70
     0
  9
$DIMCLRE
 70
     0
  9
$DIMCLRT
 70
     0
  9
$DIMTFAC
 40
1.0
  9
$DIMGAP
 40
0.625
  9
$LUNITS
 70
     2
  9
$LUPREC
 70
     4
  9
$SKETCHINC
 40
1.0
  9
$FILLETRAD
 40
0.0
  9
$AUNITS
 70
     0
  9
$AUPREC
 70
     0
  9
$MENU
  1
.
  9
$ELEVATION
 40
0.0
  9
$PELEVATION
 40
0.0
  9
$THICKNESS
 40
0.0
  9
$LIMCHECK
 70
     0
  9
$BLIPMODE
 70
     0
  9
$CHAMFERA
 40
0.0
  9
$CHAMFERB
 40
0.0
  9
$SKPOLY
 70
     0
  9
$TDCREATE
 40
2458424.7180787031538785
  9
$TDUPDATE
 40
2459119.9111226862296462
  9
$TDINDWG
 40
1.0130439815000001
  9
$TDUSRTIMER
 40
1.0130439815000001
  9
$USRTIMER
 70
     1
  9
$ANGBASE
 50
0.0
  9
$ANGDIR
 70
     0
  9
$PDMODE
 70
     0
  9
$PDSIZE
 40
0.0
  9
$PLINEWID
 40
0.0
  9
$COORDS
 70
     1
  9
$SPLFRAME
 70
     0
  9
$SPLINETYPE
 70
     6
  9
$SPLINESEGS
 70
     8
  9
$ATTDIA
 70
     1
  9
$ATTREQ
 70
     1
  9
$HANDLING
 70
     1
  9
$HANDSEED
  5
5FB
  9
$SURFTAB1
 70
     6
  9
$SURFTAB2
 70
     6
  9
$SURFTYPE
 70
     6
  9
$SURFU
 70
     6
  9
$SURFV
 70
     6
  9
$UCSNAME
  2

  9
$UCSORG
 10
0.0
 20
0.0
 30
0.0
  9
$UCSXDIR
 10
1.0
 20
0.0
 30
0.0
  9
$UCSYDIR
 10
0.0
 20
1.0
 30
0.0
  9
$PUCSNAME
  2

  9
$PUCSORG
 10
0.0
 20
0.0
 30
0.0
  9
$PUCSXDIR
 10
1.0
 20
0.0
 30
0.0
  9
$PUCSYDIR
 10
0.0
 20
1.0
 30
0.0
  9
$USERI1
 70
     0
  9
$USERI2
 70
     0
  9
$USERI3
 70
     0
  9
$USERI4
 70
     0
  9
$USERI5
 70
     0
  9
$USERR1
 40
0.0
  9
$USERR2
 40
0.0
  9
$USERR3
 40
0.0
  9
$USERR4
 40
0.0
  9
$USERR5
 40
0.0
  9
$WORLDVIEW
 70
     1
  9
$SHADEDGE
 70
     3
  9
$SHADEDIF
 70
    70
  9
$TILEMODE
 70
     1
  9
$MAXACTVP
 70
    64
  9
$PLIMCHECK
 70
     0
  9
$PEXTMIN
 10
0.0
 20
0.0
 30
0.0
  9
$PEXTMAX
 10
0.0
 20
0.0
 30
0.0
  9
$PLIMMIN
 10
0.0
 20
0.0
  9
$PLIMMAX
 10
12.0
 20
9.0
  9
$UNITMODE
 70
     0
  9
$VISRETAIN
 70
     1
  9
$PLINEGEN
 70
     0
  9
$PSLTSCALE
 70
     1
  0
ENDSEC
  0
SECTION
  2
TABLES
  0
TABLE
  2
VPORT
 70
     1
  0
VPORT
  2
*ACTIVE
 70
     0
 10
0.0
 20
0.0
 11
1.0
 21
1.0
 12
2890.1210168833281386
 22
2082.5408741308101526
 13
0.0
 23
0.0
 14
10.0
 24
10.0
 15
10.0
 25
10.0
 16
0.0
 26
0.0
 36
1.0
 17
0.0
 27
0.0
 37
0.0
 40
1291.4921718515570319
 41
2.5251322751322749
 42
50.0
 43
0.0
 44
0.0
 50
0.0
 51
0.0
 71
     0
 72
  1000
 73
     1
 74
     3
 75
     1
 76
     1
 77
     0
 78
     0
  0
ENDTAB
  0
TABLE
  2
LTYPE
 70
     2
  0
LTYPE
  2
CONTINUOUS
 70
     0
  3
Solid line
 72
    65
 73
     0
 40
0.0
  0
LTYPE
  2
HIDDEN
 70
     0
  3
Hidden __ __ __ __ __ __ __ __ __ __ __ __ __ _
 72
    65
 73
     2
 40
9.5249999999999986
 49
6.3499999999999988
 49
-3.1749999999999989
  0
ENDTAB
  0
TABLE
  2
LAYER
 70
     2
  0
LAYER
  2
0
 70
     0
 62
     7
  6
CONTINUOUS
  0
LAYER
  2
DEFPOINTS
 70
     0
 62
     7
  6
CONTINUOUS
  0
ENDTAB
  0
TABLE
  2
STYLE
 70
     3
  0
STYLE
  2
STANDARD
 70
     0
 40
0.0
 41
1.0
 50
0.0
 71
     0
 42
10.0
  3
txt
  4

  0
STYLE
  2
ANNOTATIVE
 70
     0
 40
0.0
 41
1.0
 50
0.0
 71
     0
 42
2.5
  3
txt
  4

  0
STYLE
  2

 70
     1
 40
0.0
 41
1.0
 50
0.0
 71
     0
 42
2.5
  3
ltypeshp.shx
  4

  0
ENDTAB
  0
TABLE
  2
VIEW
 70
     0
  0
ENDTAB
  0
TABLE
  2
UCS
 70
     0
  0
ENDTAB
  0
TABLE
  2
APPID
 70
     9
  0
APPID
  2
ACAD
 70
     0
  0
APPID
  2
ACAD_PSEXT
 70
     0
  0
APPID
  2
ACADANNOPO
 70
     0
  0
APPID
  2
ACADANNOTATIVE
 70
     0
  0
APPID
  2
ACAD_DSTYLE_DIMJAG
 70
     0
  0
APPID
  2
ACAD_DSTYLE_DIMTALN
 70
     0
  0
APPID
  2
ACAD_MLEADERVER
 70
     0
  0
APPID
  2
ACAD_NAV_VCDISPLAY
 70
     0
  0
APPID
  2
ACAD_EXEMPT_FROM_CAD_STANDARDS
 70
     0
  0
ENDTAB
  0
TABLE
  2
DIMSTYLE
 70
     3
  0
DIMSTYLE
  2
STANDARD
 70
     0
  3

  4

  5

  6

  7

 40
1.0
 41
0.18
 42
0.0625
 43
0.38
 44
0.18
 45
0.0
 46
0.0
 47
0.0
 48
0.0
140
0.18
141
0.09
142
0.0
143
25.3999999999999986
144
1.0
145
0.0
146
1.0
147
0.09
 71
     0
 72
     0
 73
     1
 74
     1
 75
     0
 76
     0
 77
     0
 78
     0
170
     0
171
     2
172
     0
173
     0
174
     0
175
     0
176
     0
177
     0
178
     0
  0
DIMSTYLE
  2
ANNOTATIVE
 70
     0
  3

  4

  5

  6

  7

 40
0.0
 41
2.5
 42
0.625
 43
3.75
 44
1.25
 45
0.0
 46
0.0
 47
0.0
 48
0.0
140
2.5
141
2.5
142
0.0
143
0.03937007874016
144
1.0
145
0.0
146
1.0
147
0.625
 71
     0
 72
     0
 73
     0
 74
     0
 75
     0
 76
     0
 77
     1
 78
     8
170
     0
171
     3
172
     1
173
     0
174
     0
175
     0
176
     0
177
     0
178
     0
  0
DIMSTYLE
  2
ISO-25
 70
     0
  3

  4

  5

  6

  7

 40
1.0
 41
2.5
 42
0.625
 43
3.75
 44
1.25
 45
0.0
 46
0.0
 47
0.0
 48
0.0
140
2.5
141
2.5
142
0.0
143
0.03937007874016
144
1.0
145
0.0
146
1.0
147
0.625
 71
     0
 72
     0
 73
     0
 74
     0
 75
     0
 76
     0
 77
     1
 78
     8
170
     0
171
     3
172
     1
173
     0
174
     0
175
     0
176
     0
177
     0
178
     0
  0
ENDTAB
  0
ENDSEC
  0
SECTION
  2
BLOCKS
  0
BLOCK
  8
0
  2
$MODEL_SPACE
 70
     0
 10
0.0
 20
0.0
 30
0.0
  3
$MODEL_SPACE
  1

  0
ENDBLK
  5
21
  8
0
  0
BLOCK
 67
     1
  8
0
  2
$PAPER_SPACE
 70
     0
 10
0.0
 20
0.0
 30
0.0
  3
$PAPER_SPACE
  1

  0
ENDBLK
  5
D5
 67
     1
  8
0
  0
BLOCK
  8
0
  2
A$C6966741B
 70
     0
 10
0.0
 20
0.0
 30
0.0
  3
A$C6966741B
  1

  0
CIRCLE
  5
2D5
  8
0
 10
19.9999877532318315
 20
19.9999975426389902
 30
0.0
 40
20.0
  0
ENDBLK
  5
2D9
  8
0
  0
ENDSEC
  0
SECTION
  2
ENTITIES
  0
LINE
  5
2AB
  8
0
 10
2630.0
 20
1650.0
 30
0.0
 11
2640.0
 21
1650.0
 31
0.0
  0
LINE
  5
2B2
  8
0
 10
2630.0
 20
1660.0
 30
0.0
 11
2620.0
 21
1660.0
 31
0.0
  0
LINE
  5
2B3
  8
0
 10
2620.0
 20
1660.0
 30
0.0
 11
2620.0
 21
1670.0
 31
0.0
  0
LINE
  5
2B4
  8
0
 10
2620.0
 20
1670.0
 30
0.0
 11
2630.0
 21
1670.0
 31
0.0
  0
LINE
  5
2CE
  8
0
 10
2630.0
 20
1650.0
 30
0.0
 11
2630.0
 21
1660.0
 31
0.0
  0
LINE
  5
2CF
  8
0
 10
2630.0
 20
1670.0
 30
0.0
 11
2630.0
 21
1680.0
 31
0.0
  0
LINE
  5
2F5
  8
0
 10
2655.4399491201529599
 20
1695.8999682000949178
 30
0.0
 11
2660.7399385201852056
 21
1687.419985160044007
 31
0.0
  0
LINE
  5
2F6
  8
0
 10
2646.9599660801018217
 20
1690.5999788000628996
 30
0.0
 11
2641.6599766800700309
 21
1699.0799618401140378
 31
0.0
  0
LINE
  5
2F7
  8
0
 10
2641.6599766800700309
 20
1699.0799618401140378
 30
0.0
 11
2633.1799936400198021
 21
1693.7799724400820196
 31
0.0
  0
LINE
  5
2F8
  8
0
 10
2633.1799936400198021
 20
1693.7799724400820196
 30
0.0
 11
2638.4799830400511382
 21
1685.2999894000311087
 31
0.0
  0
LINE
  5
2F9
  8
0
 10
2655.4399491201529599
 20
1695.8999682000949178
 30
0.0
 11
2646.9599660801018217
 21
1690.5999788000628996
 31
0.0
  0
LINE
  5
2FA
  8
0
 10
2638.4799830400511382
 20
1685.2999894000311087
 30
0.0
 11
2630.0
 21
1679.9999999999990905
 31
0.0
  0
LINE
  5
2FC
  8
0
 10
2640.0
 20
1650.0
 30
0.0
 11
2660.7399385201852056
 21
1687.419985160044007
 31
0.0
  0
LINE
  5
310
  8
0
 10
2592.4543693148339116
 20
1650.0000000000009095
 30
0.0
 11
2602.4543693148339116
 21
1650.0000000000009095
 31
0.0
  0
LINE
  5
311
  8
0
 10
2592.4543693148339116
 20
1660.0000000000009095
 30
0.0
 11
2582.4543693148339116
 21
1660.0000000000009095
 31
0.0
  0
LINE
  5
312
  8
0
 10
2582.4543693148339116
 20
1660.0000000000009095
 30
0.0
 11
2582.4543693148339116
 21
1670.0000000000009095
 31
0.0
  0
LINE
  5
313
  8
0
 10
2582.4543693148339116
 20
1670.0000000000009095
 30
0.0
 11
2592.4543693148339116
 21
1670.0000000000009095
 31
0.0
  0
LINE
  5
314
  8
0
 10
2592.4543693148339116
 20
1650.0000000000009095
 30
0.0
 11
2592.4543693148339116
 21
1660.0000000000009095
 31
0.0
  0
LINE
  5
315
  8
0
 10
2592.4543693148339116
 20
1670.0000000000009095
 30
0.0
 11
2592.4543693148339116
 21
1680.0000000000009095
 31
0.0
  0
LINE
  5
316
  8
0
 10
2617.8943184349859621
 20
1695.8999682000960547
 30
0.0
 11
2623.1943078350191172
 21
1687.4199851600449165
 31
0.0
  0
LINE
  5
317
  8
0
 10
2609.4143353949361881
 20
1690.5999788000640365
 30
0.0
 11
2604.1143459949039425
 21
1699.0799618401149473
 31
0.0
  0
LINE
  5
318
  8
0
 10
2604.1143459949039425
 20
1699.0799618401149473
 30
0.0
 11
2595.6343629548528043
 21
1693.7799724400829291
 31
0.0
  0
LINE
  5
319
  8
0
 10
2595.6343629548528043
 20
1693.7799724400829291
 30
0.0
 11
2600.9343523548850499
 21
1685.2999894000320182
 31
0.0
  0
LINE
  5
31A
  8
0
 10
2617.8943184349859621
 20
1695.8999682000960547
 30
0.0
 11
2609.4143353949361881
 21
1690.5999788000640365
 31
0.0
  0
LINE
  5
31B
  8
0
 10
2600.9343523548850499
 20
1685.2999894000320182
 30
0.0
 11
2592.4543693148339116
 21
1680.0
 31
0.0
  0
LINE
  5
31C
  8
0
 10
2602.4543693148339116
 20
1650.0000000000009095
 30
0.0
 11
2623.1943078350191172
 21
1687.4199851600449165
 31
0.0
  0
LINE
  5
321
  8
0
 10
2980.0
 20
1910.0
 30
0.0
 11
2980.0
 21
2004.4575235849290493
 31
0.0
  0
LINE
  5
32A
  8
0
 10
3130.0
 20
2098.2075235849288219
 30
0.0
 11
2980.0
 21
2004.4575235849290493
 31
0.0
  0
LINE
  5
332
  8
0
 10
3420.0
 20
2110.0
 30
0.0
 11
3419.9804560490601943
 21
2100.0000190983191715
 31
0.0
  0
LINE
  5
334
  8
0
 10
3410.0
 20
2100.0000190983191715
 30
0.0
 11
3410.0
 21
1920.0
 31
0.0
  0
LINE
  5
335
  8
0
 10
3420.0
 20
1910.0
 30
0.0
 11
3420.0
 21
1920.0
 31
0.0
  0
LINE
  5
348
  8
0
 10
3410.0
 20
2100.0
 30
0.0
 11
3420.0
 21
2100.0
 31
0.0
  0
LINE
  5
349
  8
0
 10
3130.0
 20
2110.0
 30
0.0
 11
3180.0
 21
2110.0
 31
0.0
  0
LINE
  5
34A
  8
0
 10
3370.0
 20
2110.0
 30
0.0
 11
3420.0
 21
2110.0
 31
0.0
  0
LINE
  5
34B
  8
0
 10
3180.0
 20
2110.0
 30
0.0
 11
3180.0
 21
2100.0
 31
0.0
  0
LINE
  5
34C
  8
0
 10
3180.0
 20
2100.0
 30
0.0
 11
3240.0
 21
2100.0
 31
0.0
  0
LINE
  5
34E
  8
0
 10
3240.0
 20
2110.0
 30
0.0
 11
3310.0
 21
2110.0
 31
0.0
  0
LINE
  5
350
  8
0
 10
3310.0
 20
2100.0
 30
0.0
 11
3370.0
 21
2100.0
 31
0.0
  0
LINE
  5
355
  8
0
 10
3240.0
 20
2100.0
 30
0.0
 11
3240.0
 21
2110.0
 31
0.0
  0
LINE
  5
356
  8
0
 10
3310.0
 20
2100.0
 30
0.0
 11
3310.0
 21
2110.0
 31
0.0
  0
LINE
  5
357
  8
0
 10
3370.0
 20
2100.0
 30
0.0
 11
3370.0
 21
2110.0
 31
0.0
  0
LINE
  5
358
  8
0
 10
3420.0
 20
1910.0
 30
0.0
 11
3370.0
 21
1910.0
 31
0.0
  0
LINE
  5
359
  8
0
 10
3370.0
 20
1910.0
 30
0.0
 11
3370.0
 21
1920.0
 31
0.0
  0
LINE
  5
35A
  8
0
 10
3370.0
 20
1920.0
 30
0.0
 11
3310.0
 21
1920.0
 31
0.0
  0
LINE
  5
35B
  8
0
 10
3310.0
 20
1920.0
 30
0.0
 11
3310.0
 21
1910.0
 31
0.0
  0
LINE
  5
35C
  8
0
 10
3310.0
 20
1910.0
 30
0.0
 11
3240.0
 21
1910.0
 31
0.0
  0
LINE
  5
35D
  8
0
 10
3240.0
 20
1910.0
 30
0.0
 11
3240.0
 21
1920.0
 31
0.0
  0
LINE
  5
35E
  8
0
 10
3240.0
 20
1920.0
 30
0.0
 11
3180.0
 21
1920.0
 31
0.0
  0
LINE
  5
35F
  8
0
 10
3180.0
 20
1920.0
 30
0.0
 11
3180.0
 21
1910.0
 31
0.0
  0
LINE
  5
360
  8
0
 10
3180.0
 20
1910.0
 30
0.0
 11
3090.0
 21
1910.0
 31
0.0
  0
LINE
  5
361
  8
0
 10
3090.0
 20
1910.0
 30
0.0
 11
3090.0
 21
1920.0
 31
0.0
  0
LINE
  5
362
  8
0
 10
3090.0
 20
1920.0
 30
0.0
 11
3030.0
 21
1920.0
 31
0.0
  0
LINE
  5
363
  8
0
 10
3030.0
 20
1920.0
 30
0.0
 11
3030.0
 21
1910.0
 31
0.0
  0
LINE
  5
364
  8
0
 10
3030.0
 20
1910.0
 30
0.0
 11
2980.0
 21
1910.0
 31
0.0
  0
LINE
  5
365
  8
0
 10
3410.0
 20
1920.0
 30
0.0
 11
3420.0
 21
1920.0
 31
0.0
  0
LINE
  5
367
  8
0
 10
3130.0
 20
2110.0
 30
0.0
 11
3130.0
 21
2098.2075235849288219
 31
0.0
  0
LINE
  5
369
  8
0
 10
3010.0
 20
1950.0
 30
0.0
 11
3100.0
 21
1950.0
 31
0.0
  0
LINE
  5
36A
  8
0
 10
3100.0
 20
1950.0
 30
0.0
 11
3100.0
 21
1960.0
 31
0.0
  0
LINE
  5
36B
  8
0
 10
3100.0
 20
1960.0
 30
0.0
 11
3010.0
 21
1960.0
 31
0.0
  0
LINE
  5
36C
  8
0
 10
3010.0
 20
1960.0
 30
0.0
 11
3010.0
 21
1950.0
 31
0.0
  0
LINE
  5
36D
  8
0
 10
3010.0
 20
1990.0
 30
0.0
 11
3010.0
 21
2000.0
 31
0.0
  0
LINE
  5
36E
  8
0
 10
3010.0
 20
2000.0
 30
0.0
 11
3100.0
 21
2000.0
 31
0.0
  0
LINE
  5
36F
  8
0
 10
3100.0
 20
2000.0
 30
0.0
 11
3100.0
 21
1990.0
 31
0.0
  0
LINE
  5
370
  8
0
 10
3100.0
 20
1990.0
 30
0.0
 11
3010.0
 21
1990.0
 31
0.0
  0
LINE
  5
371
  8
0
 10
3100.0
 20
2030.0
 30
0.0
 11
3070.0
 21
2030.0
 31
0.0
  0
LINE
  5
372
  8
0
 10
3070.0
 20
2030.0
 30
0.0
 11
3070.0
 21
2040.0
 31
0.0
  0
LINE
  5
373
  8
0
 10
3070.0
 20
2040.0
 30
0.0
 11
3100.0
 21
2060.0
 31
0.0
  0
LINE
  5
374
  8
0
 10
3100.0
 20
2060.0
 30
0.0
 11
3100.0
 21
2030.0
 31
0.0
  0
LINE
  5
378
  8
0
 10
3130.0
 20
2130.0
 30
0.0
 11
3180.0
 21
2130.0
 31
0.0
  0
LINE
  5
379
  8
0
 10
3180.0
 20
2130.0
 30
0.0
 11
3180.0
 21
2120.0
 31
0.0
  0
LINE
  5
37A
  8
0
 10
3180.0
 20
2120.0
 30
0.0
 11
3240.0
 21
2120.0
 31
0.0
  0
LINE
  5
37B
  8
0
 10
3240.0
 20
2120.0
 30
0.0
 11
3240.0
 21
2130.0
 31
0.0
  0
LINE
  5
37C
  8
0
 10
3240.0
 20
2130.0
 30
0.0
 11
3310.0
 21
2130.0
 31
0.0
  0
LINE
  5
37D
  8
0
 10
3310.0
 20
2130.0
 30
0.0
 11
3310.0
 21
2120.0
 31
0.0
  0
LINE
  5
37E
  8
0
 10
3310.0
 20
2120.0
 30
0.0
 11
3370.0
 21
2120.0
 31
0.0
  0
LINE
  5
37F
  8
0
 10
3370.0
 20
2120.0
 30
0.0
 11
3370.0
 21
2130.0
 31
0.0
  0
LINE
  5
380
  8
0
 10
3370.0
 20
2130.0
 30
0.0
 11
3420.0
 21
2130.0
 31
0.0
  0
LINE
  5
381
  8
0
 10
3420.0
 20
2130.0
 30
0.0
 11
3420.0
 21
2370.0
 31
0.0
  0
LINE
  5
382
  8
0
 10
3420.0
 20
2370.0
 30
0.0
 11
3370.0
 21
2370.0
 31
0.0
  0
LINE
  5
383
  8
0
 10
3370.0
 20
2370.0
 30
0.0
 11
3370.0
 21
2380.0
 31
0.0
  0
LINE
  5
384
  8
0
 10
3370.0
 20
2380.0
 30
0.0
 11
3310.0
 21
2380.0
 31
0.0
  0
LINE
  5
385
  8
0
 10
3310.0
 20
2380.0
 30
0.0
 11
3310.0
 21
2370.0
 31
0.0
  0
LINE
  5
386
  8
0
 10
3310.0
 20
2370.0
 30
0.0
 11
3240.0
 21
2370.0
 31
0.0
  0
LINE
  5
387
  8
0
 10
3240.0
 20
2370.0
 30
0.0
 11
3240.0
 21
2380.0
 31
0.0
  0
LINE
  5
388
  8
0
 10
3240.0
 20
2380.0
 30
0.0
 11
3180.0
 21
2380.0
 31
0.0
  0
LINE
  5
389
  8
0
 10
3180.0
 20
2380.0
 30
0.0
 11
3180.0
 21
2370.0
 31
0.0
  0
LINE
  5
38A
  8
0
 10
3180.0
 20
2370.0
 30
0.0
 11
3130.0
 21
2370.0
 31
0.0
  0
LINE
  5
392
  8
0
 10
2980.0
 20
2590.0
 30
0.0
 11
2980.0
 21
2495.5424764150711781
 31
0.0
  0
LINE
  5
393
  8
0
 10
3130.0
 20
2401.7924764150711781
 30
0.0
 11
2980.0
 21
2495.5424764150711781
 31
0.0
  0
LINE
  5
394
  8
0
 10
3420.0
 20
2390.0
 30
0.0
 11
3419.9804560490601943
 21
2399.9999809016808285
 31
0.0
  0
LINE
  5
395
  8
0
 10
3410.0
 20
2399.9999809016808285
 30
0.0
 11
3410.0
 21
2580.0
 31
0.0
  0
LINE
  5
396
  8
0
 10
3420.0
 20
2590.0
 30
0.0
 11
3420.0
 21
2580.0
 31
0.0
  0
LINE
  5
398
  8
0
 10
3410.0
 20
2400.0
 30
0.0
 11
3420.0
 21
2400.0
 31
0.0
  0
LINE
  5
399
  8
0
 10
3130.0
 20
2390.0
 30
0.0
 11
3180.0
 21
2390.0
 31
0.0
  0
LINE
  5
39A
  8
0
 10
3370.0
 20
2390.0
 30
0.0
 11
3420.0
 21
2390.0
 31
0.0
  0
LINE
  5
39B
  8
0
 10
3180.0
 20
2390.0
 30
0.0
 11
3180.0
 21
2400.0
 31
0.0
  0
LINE
  5
39C
  8
0
 10
3180.0
 20
2400.0
 30
0.0
 11
3240.0
 21
2400.0
 31
0.0
  0
LINE
  5
39D
  8
0
 10
3240.0
 20
2390.0
 30
0.0
 11
3310.0
 21
2390.0
 31
0.0
  0
LINE
  5
39E
  8
0
 10
3310.0
 20
2400.0
 30
0.0
 11
3370.0
 21
2400.0
 31
0.0
  0
LINE
  5
39F
  8
0
 10
3240.0
 20
2400.0
 30
0.0
 11
3240.0
 21
2390.0
 31
0.0
  0
LINE
  5
3A0
  8
0
 10
3310.0
 20
2400.0
 30
0.0
 11
3310.0
 21
2390.0
 31
0.0
  0
LINE
  5
3A1
  8
0
 10
3370.0
 20
2400.0
 30
0.0
 11
3370.0
 21
2390.0
 31
0.0
  0
LINE
  5
3A2
  8
0
 10
3420.0
 20
2590.0
 30
0.0
 11
3370.0
 21
2590.0
 31
0.0
  0
LINE
  5
3A3
  8
0
 10
3370.0
 20
2590.0
 30
0.0
 11
3370.0
 21
2580.0
 31
0.0
  0
LINE
  5
3A4
  8
0
 10
3370.0
 20
2580.0
 30
0.0
 11
3310.0
 21
2580.0
 31
0.0
  0
LINE
  5
3A5
  8
0
 10
3310.0
 20
2580.0
 30
0.0
 11
3310.0
 21
2590.0
 31
0.0
  0
LINE
  5
3A6
  8
0
 10
3310.0
 20
2590.0
 30
0.0
 11
3240.0
 21
2590.0
 31
0.0
  0
LINE
  5
3A7
  8
0
 10
3240.0
 20
2590.0
 30
0.0
 11
3240.0
 21
2580.0
 31
0.0
  0
LINE
  5
3A8
  8
0
 10
3240.0
 20
2580.0
 30
0.0
 11
3180.0
 21
2580.0
 31
0.0
  0
LINE
  5
3A9
  8
0
 10
3180.0
 20
2580.0
 30
0.0
 11
3180.0
 21
2590.0
 31
0.0
  0
LINE
  5
3AA
  8
0
 10
3180.0
 20
2590.0
 30
0.0
 11
3090.0
 21
2590.0
 31
0.0
  0
LINE
  5
3AB
  8
0
 10
3090.0
 20
2590.0
 30
0.0
 11
3090.0
 21
2580.0
 31
0.0
  0
LINE
  5
3AC
  8
0
 10
3090.0
 20
2580.0
 30
0.0
 11
3030.0
 21
2580.0
 31
0.0
  0
LINE
  5
3AD
  8
0
 10
3030.0
 20
2580.0
 30
0.0
 11
3030.0
 21
2590.0
 31
0.0
  0
LINE
  5
3AE
  8
0
 10
3030.0
 20
2590.0
 30
0.0
 11
2980.0
 21
2590.0
 31
0.0
  0
LINE
  5
3AF
  8
0
 10
3410.0
 20
2580.0
 30
0.0
 11
3420.0
 21
2580.0
 31
0.0
  0
LINE
  5
3B1
  8
0
 10
3130.0
 20
2390.0
 30
0.0
 11
3130.0
 21
2401.7924764150711781
 31
0.0
  0
LINE
  5
3B3
  8
0
 10
3010.0
 20
2550.0
 30
0.0
 11
3100.0
 21
2550.0
 31
0.0
  0
LINE
  5
3B4
  8
0
 10
3100.0
 20
2550.0
 30
0.0
 11
3100.0
 21
2540.0
 31
0.0
  0
LINE
  5
3B5
  8
0
 10
3100.0
 20
2540.0
 30
0.0
 11
3010.0
 21
2540.0
 31
0.0
  0
LINE
  5
3B6
  8
0
 10
3010.0
 20
2540.0
 30
0.0
 11
3010.0
 21
2550.0
 31
0.0
  0
LINE
  5
3B7
  8
0
 10
3010.0
 20
2510.0
 30
0.0
 11
3010.0
 21
2500.0
 31
0.0
  0
LINE
  5
3B8
  8
0
 10
3010.0
 20
2500.0
 30
0.0
 11
3100.0
 21
2500.0
 31
0.0
  0
LINE
  5
3B9
  8
0
 10
3100.0
 20
2500.0
 30
0.0
 11
3100.0
 21
2510.0
 31
0.0
  0
LINE
  5
3BA
  8
0
 10
3100.0
 20
2510.0
 30
0.0
 11
3010.0
 21
2510.0
 31
0.0
  0
LINE
  5
3BB
  8
0
 10
3100.0
 20
2470.0
 30
0.0
 11
3070.0
 21
2470.0
 31
0.0
  0
LINE
  5
3BC
  8
0
 10
3070.0
 20
2470.0
 30
0.0
 11
3070.0
 21
2460.0
 31
0.0
  0
LINE
  5
3BD
  8
0
 10
3070.0
 20
2460.0
 30
0.0
 11
3100.0
 21
2440.0
 31
0.0
  0
LINE
  5
3BE
  8
0
 10
3100.0
 20
2440.0
 30
0.0
 11
3100.0
 21
2470.0
 31
0.0
  0
LINE
  5
3BF
  8
0
 10
3420.0
 20
1890.0
 30
0.0
 11
3370.0
 21
1890.0
 31
0.0
  0
LINE
  5
3C0
  8
0
 10
3370.0
 20
1890.0
 30
0.0
 11
3370.0
 21
1900.0
 31
0.0
  0
LINE
  5
3C1
  8
0
 10
3370.0
 20
1900.0
 30
0.0
 11
3310.0
 21
1900.0
 31
0.0
  0
LINE
  5
3C2
  8
0
 10
3310.0
 20
1900.0
 30
0.0
 11
3310.0
 21
1890.0
 31
0.0
  0
LINE
  5
3C3
  8
0
 10
3310.0
 20
1890.0
 30
0.0
 11
3240.0
 21
1890.0
 31
0.0
  0
LINE
  5
3C4
  8
0
 10
3240.0
 20
1890.0
 30
0.0
 11
3240.0
 21
1900.0
 31
0.0
  0
LINE
  5
3C5
  8
0
 10
3240.0
 20
1900.0
 30
0.0
 11
3180.0
 21
1900.0
 31
0.0
  0
LINE
  5
3C6
  8
0
 10
3180.0
 20
1900.0
 30
0.0
 11
3180.0
 21
1890.0
 31
0.0
  0
LINE
  5
3C7
  8
0
 10
3180.0
 20
1890.0
 30
0.0
 11
3090.0
 21
1890.0
 31
0.0
  0
LINE
  5
3C8
  8
0
 10
3090.0
 20
1890.0
 30
0.0
 11
3090.0
 21
1900.0
 31
0.0
  0
LINE
  5
3C9
  8
0
 10
3090.0
 20
1900.0
 30
0.0
 11
3030.0
 21
1900.0
 31
0.0
  0
LINE
  5
3CA
  8
0
 10
3030.0
 20
1900.0
 30
0.0
 11
3030.0
 21
1890.0
 31
0.0
  0
LINE
  5
3CB
  8
0
 10
3030.0
 20
1890.0
 30
0.0
 11
2980.0
 21
1890.0
 31
0.0
  0
LINE
  5
3CC
  8
0
 10
2980.0
 20
1890.0
 30
0.0
 11
2980.0
 21
1650.0
 31
0.0
  0
LINE
  5
3CD
  8
0
 10
2980.0
 20
1650.0
 30
0.0
 11
3030.0
 21
1650.0
 31
0.0
  0
LINE
  5
3CE
  8
0
 10
3030.0
 20
1650.0
 30
0.0
 11
3030.0
 21
1640.0
 31
0.0
  0
LINE
  5
3CF
  8
0
 10
3030.0
 20
1640.0
 30
0.0
 11
3090.0
 21
1640.0
 31
0.0
  0
LINE
  5
3D0
  8
0
 10
3090.0
 20
1640.0
 30
0.0
 11
3090.0
 21
1650.0
 31
0.0
  0
LINE
  5
3D1
  8
0
 10
3090.0
 20
1650.0
 30
0.0
 11
3180.0
 21
1650.0
 31
0.0
  0
LINE
  5
3D2
  8
0
 10
3180.0
 20
1650.0
 30
0.0
 11
3180.0
 21
1640.0
 31
0.0
  0
LINE
  5
3D3
  8
0
 10
3180.0
 20
1640.0
 30
0.0
 11
3240.0
 21
1640.0
 31
0.0
  0
LINE
  5
3D4
  8
0
 10
3240.0
 20
1640.0
 30
0.0
 11
3240.0
 21
1650.0
 31
0.0
  0
LINE
  5
3D5
  8
0
 10
3240.0
 20
1650.0
 30
0.0
 11
3310.0
 21
1650.0
 31
0.0
  0
LINE
  5
3D6
  8
0
 10
3310.0
 20
1650.0
 30
0.0
 11
3310.0
 21
1640.0
 31
0.0
  0
LINE
  5
3D7
  8
0
 10
3310.0
 20
1640.0
 30
0.0
 11
3370.0
 21
1640.0
 31
0.0
  0
LINE
  5
3D8
  8
0
 10
3370.0
 20
1640.0
 30
0.0
 11
3370.0
 21
1650.0
 31
0.0
  0
LINE
  5
3D9
  8
0
 10
3370.0
 20
1650.0
 30
0.0
 11
3420.0
 21
1650.0
 31
0.0
  0
LINE
  5
3DA
  8
0
 10
3420.0
 20
1650.0
 30
0.0
 11
3420.0
 21
1890.0
 31
0.0
  0
LINE
  5
3DB
  8
0
 10
3130.0
 20
2320.0
 30
0.0
 11
3140.0
 21
2320.0
 31
0.0
  0
LINE
  5
3DC
  8
0
 10
3140.0
 20
2320.0
 30
0.0
 11
3140.0
 21
2270.0
 31
0.0
  0
LINE
  5
3DD
  8
0
 10
3140.0
 20
2270.0
 30
0.0
 11
3130.0
 21
2270.0
 31
0.0
  0
LINE
  5
3DE
  8
0
 10
3130.0
 20
2270.0
 30
0.0
 11
3130.0
 21
2230.0
 31
0.0
  0
LINE
  5
3DF
  8
0
 10
3130.0
 20
2230.0
 30
0.0
 11
3140.0
 21
2230.0
 31
0.0
  0
LINE
  5
3E0
  8
0
 10
3140.0
 20
2230.0
 30
0.0
 11
3140.0
 21
2180.0
 31
0.0
  0
LINE
  5
3E1
  8
0
 10
3140.0
 20
2180.0
 30
0.0
 11
3130.0
 21
2180.0
 31
0.0
  0
LINE
  5
3E2
  8
0
 10
3130.0
 20
2130.0
 30
0.0
 11
3130.0
 21
2180.0
 31
0.0
  0
LINE
  5
3E3
  8
0
 10
3130.0
 20
2320.0
 30
0.0
 11
3130.0
 21
2370.0
 31
0.0
  0
LINE
  5
3E4
  8
0
 10
3110.0
 20
2130.0
 30
0.0
 11
3110.0
 21
2180.0
 31
0.0
  0
LINE
  5
3E5
  8
0
 10
3110.0
 20
2180.0
 30
0.0
 11
3120.0
 21
2180.0
 31
0.0
  0
LINE
  5
3E6
  8
0
 10
3120.0
 20
2180.0
 30
0.0
 11
3120.0
 21
2230.0
 31
0.0
  0
LINE
  5
3E7
  8
0
 10
3120.0
 20
2230.0
 30
0.0
 11
3110.0
 21
2230.0
 31
0.0
  0
LINE
  5
3E8
  8
0
 10
3110.0
 20
2230.0
 30
0.0
 11
3110.0
 21
2270.0
 31
0.0
  0
LINE
  5
3E9
  8
0
 10
3110.0
 20
2270.0
 30
0.0
 11
3120.0
 21
2270.0
 31
0.0
  0
LINE
  5
3EA
  8
0
 10
3120.0
 20
2270.0
 30
0.0
 11
3120.0
 21
2320.0
 31
0.0
  0
LINE
  5
3EB
  8
0
 10
3120.0
 20
2320.0
 30
0.0
 11
3110.0
 21
2320.0
 31
0.0
  0
LINE
  5
3EC
  8
0
 10
3110.0
 20
2320.0
 30
0.0
 11
3110.0
 21
2370.0
 31
0.0
  0
LINE
  5
3F1
  8
0
 10
2930.0
 20
2370.0
 30
0.0
 11
2930.0
 21
2320.0
 31
0.0
  0
LINE
  5
3F2
  8
0
 10
2930.0
 20
2320.0
 30
0.0
 11
2920.0
 21
2320.0
 31
0.0
  0
LINE
  5
3F3
  8
0
 10
2920.0
 20
2320.0
 30
0.0
 11
2920.0
 21
2270.0
 31
0.0
  0
LINE
  5
3F4
  8
0
 10
2920.0
 20
2270.0
 30
0.0
 11
2930.0
 21
2270.0
 31
0.0
  0
LINE
  5
3F5
  8
0
 10
2930.0
 20
2270.0
 30
0.0
 11
2930.0
 21
2230.0
 31
0.0
  0
LINE
  5
3F6
  8
0
 10
2930.0
 20
2230.0
 30
0.0
 11
2920.0
 21
2230.0
 31
0.0
  0
LINE
  5
3F7
  8
0
 10
2920.0
 20
2230.0
 30
0.0
 11
2920.0
 21
2180.0
 31
0.0
  0
LINE
  5
3F8
  8
0
 10
2920.0
 20
2180.0
 30
0.0
 11
2930.0
 21
2180.0
 31
0.0
  0
LINE
  5
3F9
  8
0
 10
2930.0
 20
2180.0
 30
0.0
 11
2930.0
 21
2130.0
 31
0.0
  0
LINE
  5
3FE
  8
0
 10
2990.0
 20
2130.0
 30
0.0
 11
2990.0
 21
2120.0
 31
0.0
  0
LINE
  5
3FF
  8
0
 10
2990.0
 20
2120.0
 30
0.0
 11
3050.0
 21
2120.0
 31
0.0
  0
LINE
  5
400
  8
0
 10
3050.0
 20
2120.0
 30
0.0
 11
3050.0
 21
2130.0
 31
0.0
  0
LINE
  5
401
  8
0
 10
2990.0
 20
2370.0
 30
0.0
 11
2990.0
 21
2380.0
 31
0.0
  0
LINE
  5
402
  8
0
 10
2990.0
 20
2380.0
 30
0.0
 11
3050.0
 21
2380.0
 31
0.0
  0
LINE
  5
403
  8
0
 10
3050.0
 20
2380.0
 30
0.0
 11
3050.0
 21
2370.0
 31
0.0
  0
LINE
  5
404
  8
0
 10
2930.0
 20
2370.0
 30
0.0
 11
2990.0
 21
2370.0
 31
0.0
  0
LINE
  5
405
  8
0
 10
3050.0
 20
2370.0
 30
0.0
 11
3110.0
 21
2370.0
 31
0.0
  0
LINE
  5
406
  8
0
 10
2930.0
 20
2130.0
 30
0.0
 11
2990.0
 21
2130.0
 31
0.0
  0
LINE
  5
407
  8
0
 10
3050.0
 20
2130.0
 30
0.0
 11
3110.0
 21
2130.0
 31
0.0
  0
LINE
  5
408
  8
0
 10
3130.0
 20
2460.0
 30
0.0
 11
3130.0
 21
2520.0
 31
0.0
  0
LINE
  5
409
  8
0
 10
3130.0
 20
2520.0
 30
0.0
 11
3140.0
 21
2520.0
 31
0.0
  0
LINE
  5
40A
  8
0
 10
3140.0
 20
2520.0
 30
0.0
 11
3140.0
 21
2460.0
 31
0.0
  0
LINE
  5
40B
  8
0
 10
3140.0
 20
2460.0
 30
0.0
 11
3130.0
 21
2460.0
 31
0.0
  0
LINE
  5
40C
  8
0
 10
3130.0
 20
2040.0
 30
0.0
 11
3140.0
 21
2040.0
 31
0.0
  0
LINE
  5
40D
  8
0
 10
3140.0
 20
2040.0
 30
0.0
 11
3140.0
 21
1980.0
 31
0.0
  0
LINE
  5
40E
  8
0
 10
3140.0
 20
1980.0
 30
0.0
 11
3130.0
 21
1980.0
 31
0.0
  0
LINE
  5
40F
  8
0
 10
3130.0
 20
1980.0
 30
0.0
 11
3130.0
 21
2040.0
 31
0.0
  0
LINE
  5
413
  8
0
 10
3130.0
 20
1840.0
 30
0.0
 11
3130.0
 21
1790.0
 31
0.0
  0
LINE
  5
414
  8
0
 10
3130.0
 20
1790.0
 30
0.0
 11
3140.0
 21
1790.0
 31
0.0
  0
LINE
  5
415
  8
0
 10
3140.0
 20
1790.0
 30
0.0
 11
3140.0
 21
1840.0
 31
0.0
  0
LINE
  5
416
  8
0
 10
3140.0
 20
1840.0
 30
0.0
 11
3130.0
 21
1840.0
 31
0.0
  0
LINE
  5
417
  8
0
 10
3130.0
 20
1700.0
 30
0.0
 11
3130.0
 21
1750.0
 31
0.0
  0
LINE
  5
418
  8
0
 10
3130.0
 20
1750.0
 30
0.0
 11
3140.0
 21
1750.0
 31
0.0
  0
LINE
  5
419
  8
0
 10
3140.0
 20
1750.0
 30
0.0
 11
3140.0
 21
1700.0
 31
0.0
  0
LINE
  5
41A
  8
0
 10
3140.0
 20
1700.0
 30
0.0
 11
3130.0
 21
1700.0
 31
0.0
  0
LINE
  5
41B
  8
0
 10
2770.0
 20
2590.0
 30
0.0
 11
2590.0
 21
2590.0
 31
0.0
  0
LINE
  5
41C
  8
0
 10
2590.0
 20
2590.0
 30
0.0
 11
2590.0
 21
2330.0
 31
0.0
  0
LINE
  5
41D
  8
0
 10
2590.0
 20
2330.0
 30
0.0
 11
2770.0
 21
2330.0
 31
0.0
  0
LINE
  5
41E
  8
0
 10
2770.0
 20
2330.0
 30
0.0
 11
2770.0
 21
2590.0
 31
0.0
  0
LINE
  5
41F
  8
0
 10
2600.0
 20
1990.0
 30
0.0
 11
2600.0
 21
1730.0
 31
0.0
  0
LINE
  5
420
  8
0
 10
2600.0
 20
1730.0
 30
0.0
 11
2515.5424764150711781
 21
1729.9999999999990905
 31
0.0
  0
LINE
  5
421
  8
0
 10
2515.5424764150711781
 20
1730.0
 30
0.0
 11
2515.5424764150711781
 21
1990.0
 31
0.0
  0
LINE
  5
422
  8
0
 10
2600.0
 20
1990.0
 30
0.0
 11
2515.5424764150711781
 21
1990.0
 31
0.0
  0
LINE
  5
423
  8
0
 10
2610.0
 20
1730.0
 30
0.0
 11
2610.8412184585758951
 21
1989.9986391339480178
 31
0.0
  0
LINE
  5
427
  8
0
 10
2610.8412184585758951
 20
1989.9986391339480178
 30
0.0
 11
2787.7274388395899223
 21
1989.426328624369944
 31
0.0
  0
LINE
  5
428
  8
0
 10
2786.8862203810140272
 20
1729.4276894904219262
 30
0.0
 11
2787.7274388395899223
 21
1989.4263286243710809
 31
0.0
  0
LINE
  5
429
  8
0
 10
2610.0
 20
1730.0
 30
0.0
 11
2786.8862203810149367
 21
1729.4276894904219262
 31
0.0
  0
LINE
  5
49F
  8
0
 10
2620.0
 20
1770.0
 30
0.0
 11
2630.0
 21
1770.0
 31
0.0
  0
LINE
  5
4A0
  8
0
 10
2630.0
 20
1770.0
 30
0.0
 11
2630.0
 21
1775.0
 31
0.0
  0
LINE
  5
4A1
  8
0
 10
2630.0
 20
1775.0
 30
0.0
 11
2620.0
 21
1775.0
 31
0.0
  0
LINE
  5
4A2
  8
0
 10
2620.0
 20
1775.0
 30
0.0
 11
2620.0
 21
1770.0
 31
0.0
  0
LINE
  5
4A5
  8
0
 10
2620.0
 20
1949.9986391339480178
 30
0.0
 11
2630.0
 21
1949.9986391339480178
 31
0.0
  0
LINE
  5
4A6
  8
0
 10
2630.0
 20
1949.9986391339480178
 30
0.0
 11
2630.0
 21
1944.9986391339480178
 31
0.0
  0
LINE
  5
4A7
  8
0
 10
2630.0
 20
1944.9986391339480178
 30
0.0
 11
2620.0
 21
1944.9986391339480178
 31
0.0
  0
LINE
  5
4A8
  8
0
 10
2620.0
 20
1944.9986391339480178
 30
0.0
 11
2620.0
 21
1949.9986391339480178
 31
0.0
  0
LINE
  5
4B7
  8
0
 10
2580.0
 20
1770.0
 30
0.0
 11
2590.0
 21
1770.0
 31
0.0
  0
LINE
  5
4B8
  8
0
 10
2590.0
 20
1770.0
 30
0.0
 11
2590.0
 21
1775.0
 31
0.0
  0
LINE
  5
4B9
  8
0
 10
2590.0
 20
1775.0
 30
0.0
 11
2580.0
 21
1775.0
 31
0.0
  0
LINE
  5
4BA
  8
0
 10
2580.0
 20
1775.0
 30
0.0
 11
2580.0
 21
1770.0
 31
0.0
  0
LINE
  5
4BB
  8
0
 10
2580.0
 20
1949.9986391339480178
 30
0.0
 11
2590.0
 21
1949.9986391339480178
 31
0.0
  0
LINE
  5
4BC
  8
0
 10
2590.0
 20
1949.9986391339480178
 30
0.0
 11
2590.0
 21
1944.9986391339480178
 31
0.0
  0
LINE
  5
4BD
  8
0
 10
2590.0
 20
1944.9986391339480178
 30
0.0
 11
2580.0
 21
1944.9986391339480178
 31
0.0
  0
LINE
  5
4BE
  8
0
 10
2580.0
 20
1944.9986391339480178
 30
0.0
 11
2580.0
 21
1949.9986391339480178
 31
0.0
  0
TEXT
  5
58C
  8
0
 10
3430.0
 20
2480.0
 30
0.0
 40
10.0
  1
Side Wall 1
  0
TEXT
  5
58D
  8
0
 10
3440.0
 20
2240.0
 30
0.0
 40
10.0
  1
Top Wall
  0
TEXT
  5
58E
  8
0
 10
3430.0
 20
2000.0
 30
0.0
 40
10.0
  1
Side Wall 2
  0
TEXT
  5
58F
  8
0
 10
3440.0
 20
1760.0
 30
0.0
 40
10.0
  1
Base
  0
TEXT
  5
590
  8
0
 10
2672.1217398310809585
 20
1666.6109278171129517
 30
0.0
 40
10.0
  1
Front Door Supports
  0
TEXT
  5
591
  8
0
 10
2600.0
 20
2010.0
 30
0.0
 40
10.0
  1
Front Door
  0
TEXT
  5
592
  8
0
 10
2650.0
 20
2310.0
 30
0.0
 40
10.0
  1
Rear Door
  0
TEXT
  5
593
  8
0
 10
2830.0
 20
2240.0
 30
0.0
 40
10.0
  1
Dividing Wall
  0
ENDSEC
  0
EOF
